<svg width="2588" height="2588" viewBox="0 0 2588 2588" fill="none" xmlns="http://www.w3.org/2000/svg">
<path d="M2588 1979.3H0V1980.6H2588V1979.3Z" fill="#EBEBEB"/>
<path d="M2328.68 2062.58H2194.11V2063.88H2328.68V2062.58Z" fill="#EBEBEB"/>
<path d="M1842.81 2076.66H1609.74V2077.96H1842.81V2076.66Z" fill="#EBEBEB"/>
<path d="M2188.93 2014.55H1874.28V2015.84H2188.93V2014.55Z" fill="#EBEBEB"/>
<path d="M371.067 2023.25H271.533V2024.54H371.067V2023.25Z" fill="#EBEBEB"/>
<path d="M703.367 2023.25H417.186V2024.54H703.367V2023.25Z" fill="#EBEBEB"/>
<path d="M1263.67 2045.09H878.211V2046.38H1263.67V2045.09Z" fill="#EBEBEB"/>
<path d="M349.071 1599.49H239.339V1979.3H349.071V1599.49Z" fill="#FAFAFA"/>
<path d="M445.135 1682.82H335.404V1979.3H445.135V1682.82Z" fill="#FAFAFA"/>
<path d="M515.322 1438.51H405.591V1979.3H515.322V1438.51Z" fill="#FAFAFA"/>
<path d="M588.253 1000H478.522V1979.3H588.253V1000Z" fill="#FAFAFA"/>
<path d="M859.683 1076.25H565.22V1979.3H859.683V1076.25Z" fill="#FAFAFA"/>
<path d="M2004.56 1979.3H2129.92V1719.36H2004.56V1979.3Z" fill="#FAFAFA"/>
<path d="M1894.73 1979.3H2020.09V1776.4H1894.73V1979.3Z" fill="#FAFAFA"/>
<path d="M1814.6 1979.3H1939.96V1609.17H1814.6V1979.3Z" fill="#FAFAFA"/>
<path d="M1731.27 1979.3H1856.63V1309.06H1731.27V1979.3Z" fill="#FAFAFA"/>
<path d="M1798.66 1160.51H1413.93V1979.3H1798.66V1160.51Z" fill="#F0F0F0"/>
<path d="M1762.01 1194.83H1743.69V1294.47H1762.01V1194.83Z" fill="#F5F5F5"/>
<path d="M1762.01 1350.68H1743.69V1450.31H1762.01V1350.68Z" fill="#F5F5F5"/>
<path d="M1762.01 1506.48H1743.69V1606.11H1762.01V1506.48Z" fill="#F5F5F5"/>
<path d="M1762.01 1662.27H1743.69V1761.91H1762.01V1662.27Z" fill="#F5F5F5"/>
<path d="M1762.01 1818.12H1743.69V1917.76H1762.01V1818.12Z" fill="#F5F5F5"/>
<path d="M1697.11 1194.83H1678.78V1294.47H1697.11V1194.83Z" fill="#F5F5F5"/>
<path d="M1697.11 1350.68H1678.78V1450.31H1697.11V1350.68Z" fill="#F5F5F5"/>
<path d="M1697.11 1506.48H1678.78V1606.11H1697.11V1506.48Z" fill="#F5F5F5"/>
<path d="M1697.11 1662.27H1678.78V1761.91H1697.11V1662.27Z" fill="#F5F5F5"/>
<path d="M1697.11 1818.12H1678.78V1917.76H1697.11V1818.12Z" fill="#F5F5F5"/>
<path d="M1632.2 1194.83H1613.88V1294.47H1632.2V1194.83Z" fill="#F5F5F5"/>
<path d="M1632.2 1350.68H1613.88V1450.31H1632.2V1350.68Z" fill="#F5F5F5"/>
<path d="M1632.2 1506.48H1613.88V1606.11H1632.2V1506.48Z" fill="#F5F5F5"/>
<path d="M1632.2 1662.27H1613.88V1761.91H1632.2V1662.27Z" fill="#F5F5F5"/>
<path d="M1632.2 1818.12H1613.88V1917.76H1632.2V1818.12Z" fill="#F5F5F5"/>
<path d="M1567.29 1194.83H1548.97V1294.47H1567.29V1194.83Z" fill="#F5F5F5"/>
<path d="M1567.29 1350.68H1548.97V1450.31H1567.29V1350.68Z" fill="#F5F5F5"/>
<path d="M1567.29 1506.48H1548.97V1606.11H1567.29V1506.48Z" fill="#F5F5F5"/>
<path d="M1567.29 1662.27H1548.97V1761.91H1567.29V1662.27Z" fill="#F5F5F5"/>
<path d="M1567.29 1818.12H1548.97V1917.76H1567.29V1818.12Z" fill="#F5F5F5"/>
<path d="M1502.33 1194.83H1484.01V1294.47H1502.33V1194.83Z" fill="#F5F5F5"/>
<path d="M1502.33 1350.68H1484.01V1450.31H1502.33V1350.68Z" fill="#F5F5F5"/>
<path d="M1502.33 1506.48H1484.01V1606.11H1502.33V1506.48Z" fill="#F5F5F5"/>
<path d="M1502.33 1662.27H1484.01V1761.91H1502.33V1662.27Z" fill="#F5F5F5"/>
<path d="M1502.33 1818.12H1484.01V1917.76H1502.33V1818.12Z" fill="#F5F5F5"/>
<path opacity="0.5" d="M1413.93 1160.51H1493.17L1527.64 1979.3H1413.93V1160.51Z" fill="#E0E0E0"/>
<path d="M1224.8 844.154L1452.95 887.322V1979.3H1224.8V844.154Z" fill="#F0F0F0"/>
<path d="M1224.8 844.154H1042.24V1979.3H1224.8V844.154Z" fill="#E6E6E6"/>
<path d="M1042.24 944.051H1452.95V938.254H1042.24V944.051Z" fill="#E0E0E0"/>
<path d="M1042.24 1005.85H1452.95V1000.05H1042.24V1005.85Z" fill="#E0E0E0"/>
<path d="M1042.24 1067.65H1452.95V1061.86H1042.24V1067.65Z" fill="#E0E0E0"/>
<path d="M1042.24 1129.4H1452.95V1123.61H1042.24V1129.4Z" fill="#E0E0E0"/>
<path d="M1042.24 1191.26H1452.95V1185.46H1042.24V1191.26Z" fill="#E0E0E0"/>
<path d="M1042.24 1253.06H1452.95V1247.26H1042.24V1253.06Z" fill="#E0E0E0"/>
<path d="M1042.24 1314.86H1452.95V1309.06H1042.24V1314.86Z" fill="#E0E0E0"/>
<path d="M1042.24 1376.66H1452.95V1370.86H1042.24V1376.66Z" fill="#E0E0E0"/>
<path d="M1042.24 1438.51H1452.95V1432.72H1042.24V1438.51Z" fill="#E0E0E0"/>
<path d="M1042.24 1500.31H1452.95V1494.52H1042.24V1500.31Z" fill="#E0E0E0"/>
<path d="M1042.24 1562.12H1452.95V1556.32H1042.24V1562.12Z" fill="#E0E0E0"/>
<path d="M1042.24 1623.87H1452.95V1618.07H1042.24V1623.87Z" fill="#E0E0E0"/>
<path d="M1042.24 1685.72H1452.95V1679.92H1042.24V1685.72Z" fill="#E0E0E0"/>
<path d="M1042.24 1747.52H1452.95V1741.72H1042.24V1747.52Z" fill="#E0E0E0"/>
<path d="M1042.24 1809.32H1452.95V1803.53H1042.24V1809.32Z" fill="#E0E0E0"/>
<path d="M1042.24 1871.12H1452.95V1865.33H1042.24V1871.12Z" fill="#E0E0E0"/>
<path d="M1042.24 1932.98H1452.95V1927.18H1042.24V1932.98Z" fill="#E0E0E0"/>
<path d="M942.395 602.9H751.556V1979.3H942.395V602.9Z" fill="#F0F0F0"/>
<path d="M942.395 602.9H751.556L821.795 481.368H1095.09L942.395 602.9Z" fill="#FAFAFA"/>
<path d="M942.394 602.901L1095.09 481.368V1979.3H942.394V602.901Z" fill="#EBEBEB"/>
<path d="M1095.09 667.031H751.556V674.381H1095.09V667.031Z" fill="#E0E0E0"/>
<path d="M1095.09 744.93H751.556V752.28H1095.09V744.93Z" fill="#E0E0E0"/>
<path d="M1095.09 822.829H751.556V830.179H1095.09V822.829Z" fill="#E0E0E0"/>
<path d="M1095.09 900.779H751.556V908.129H1095.09V900.779Z" fill="#E0E0E0"/>
<path d="M1095.09 978.678H751.556V986.028H1095.09V978.678Z" fill="#E0E0E0"/>
<path d="M1095.09 1056.58H751.556V1063.93H1095.09V1056.58Z" fill="#E0E0E0"/>
<path d="M1095.09 1134.48H751.556V1141.83H1095.09V1134.48Z" fill="#E0E0E0"/>
<path d="M1095.09 1212.37H751.556V1219.72H1095.09V1212.37Z" fill="#E0E0E0"/>
<path d="M1095.09 1290.27H751.556V1297.62H1095.09V1290.27Z" fill="#E0E0E0"/>
<path d="M1095.09 1368.22H751.556V1375.57H1095.09V1368.22Z" fill="#E0E0E0"/>
<path d="M1095.09 1446.12H751.556V1453.47H1095.09V1446.12Z" fill="#E0E0E0"/>
<path d="M1095.09 1524.02H751.556V1531.37H1095.09V1524.02Z" fill="#E0E0E0"/>
<path d="M1095.09 1601.92H751.556V1609.27H1095.09V1601.92Z" fill="#E0E0E0"/>
<path d="M1095.09 1679.82H751.556V1687.17H1095.09V1679.82Z" fill="#E0E0E0"/>
<path d="M1095.09 1757.72H751.556V1765.07H1095.09V1757.72Z" fill="#E0E0E0"/>
<path d="M1095.09 1835.67H751.556V1843.02H1095.09V1835.67Z" fill="#E0E0E0"/>
<path d="M1095.09 1913.57H751.556V1920.92H1095.09V1913.57Z" fill="#E0E0E0"/>
<path d="M718.428 1268.95H510.094V1979.3H718.428V1268.95Z" fill="#F0F0F0"/>
<path d="M584.527 1305.65H551.09V1419.67H584.527V1305.65Z" fill="#E6E6E6"/>
<path d="M666.564 1305.65H633.127V1419.67H666.564V1305.65Z" fill="#E6E6E6"/>
<path d="M584.527 1453.32H551.09V1567.34H584.527V1453.32Z" fill="#E6E6E6"/>
<path d="M666.564 1453.32H633.127V1567.34H666.564V1453.32Z" fill="#E6E6E6"/>
<path d="M584.527 1600.94H551.09V1714.96H584.527V1600.94Z" fill="#E6E6E6"/>
<path d="M666.564 1600.94H633.127V1714.96H666.564V1600.94Z" fill="#E6E6E6"/>
<path d="M584.527 1748.61H551.09V1862.64H584.527V1748.61Z" fill="#E6E6E6"/>
<path d="M666.564 1748.61H633.127V1862.64H666.564V1748.61Z" fill="#E6E6E6"/>
<path d="M718.376 1268.95H510.094L558.955 1219.72H767.289L718.376 1268.95Z" fill="white"/>
<path d="M718.377 1268.95L767.29 1219.72L816.152 1268.95V1979.3H718.377V1268.95Z" fill="#E6E6E6"/>
<path opacity="0.08" d="M1294 2213.05C1848.26 2213.05 2297.57 2186.82 2297.57 2154.46C2297.57 2122.1 1848.26 2095.87 1294 2095.87C739.74 2095.87 290.425 2122.1 290.425 2154.46C290.425 2186.82 739.74 2213.05 1294 2213.05Z" fill="#444444"/>
<path d="M2044.52 1994.26H1144.15V1713.62H1937.79L2011.86 1773.82C2022.1 1782.12 2030.34 1792.62 2036 1804.53C2041.65 1816.44 2044.56 1829.47 2044.52 1842.66V1994.26Z" fill="#DA2828"/>
<path opacity="0.5" d="M2044.52 1994.26H1144.15V1713.62H1937.79L2011.86 1773.82C2022.1 1782.12 2030.34 1792.62 2036 1804.53C2041.65 1816.44 2044.56 1829.47 2044.52 1842.66V1994.26Z" fill="black"/>
<path d="M1138.98 1968.95C1138.98 1866.52 1185.56 1783.49 1242.5 1783.49H1132.66C1075.37 1783.49 1029.14 1866.31 1029.14 1968.95C1029.14 2071.59 1075.73 2154.46 1132.66 2154.46H1242.71C1185.3 2154.46 1138.98 2071.38 1138.98 1968.95Z" fill="#263238"/>
<path d="M1242.7 2154.41C1299.99 2154.41 1346.43 2071.38 1346.43 1968.95C1346.43 1866.53 1299.99 1783.49 1242.7 1783.49C1185.42 1783.49 1138.98 1866.53 1138.98 1968.95C1138.98 2071.38 1185.42 2154.41 1242.7 2154.41Z" fill="#263238"/>
<path d="M1251.04 2113.57C1291.66 2113.57 1324.59 2048.82 1324.59 1968.95C1324.59 1889.08 1291.66 1824.33 1251.04 1824.33C1210.42 1824.33 1177.49 1889.08 1177.49 1968.95C1177.49 2048.82 1210.42 2113.57 1251.04 2113.57Z" fill="white"/>
<path d="M541.098 1968.95C541.098 1866.52 587.682 1783.49 644.618 1783.49H534.784C477.485 1783.49 431.264 1866.31 431.264 1968.95C431.264 2071.59 477.848 2154.46 534.784 2154.46H644.825C587.527 2154.46 541.098 2071.38 541.098 1968.95Z" fill="#263238"/>
<path d="M644.826 2154.41C702.113 2154.41 748.553 2071.38 748.553 1968.95C748.553 1866.53 702.113 1783.49 644.826 1783.49C587.539 1783.49 541.099 1866.53 541.099 1968.95C541.099 2071.38 587.539 2154.41 644.826 2154.41Z" fill="#263238"/>
<path d="M1849.8 1968.95C1849.8 1866.52 1896.38 1783.49 1953.32 1783.49H1843.48C1786.24 1783.49 1739.96 1866.31 1739.96 1968.95C1739.96 2071.59 1786.55 2154.46 1843.48 2154.46H1953.53C1896.28 2154.46 1849.8 2071.38 1849.8 1968.95Z" fill="#263238"/>
<path d="M1953.53 2154.41C2010.81 2154.41 2057.25 2071.38 2057.25 1968.95C2057.25 1866.53 2010.81 1783.49 1953.53 1783.49C1896.24 1783.49 1849.8 1866.53 1849.8 1968.95C1849.8 2071.38 1896.24 2154.41 1953.53 2154.41Z" fill="#263238"/>
<path d="M1961.91 2113.57C2002.53 2113.57 2035.46 2048.82 2035.46 1968.95C2035.46 1889.08 2002.53 1824.33 1961.91 1824.33C1921.29 1824.33 1888.36 1889.08 1888.36 1968.95C1888.36 2048.82 1921.29 2113.57 1961.91 2113.57Z" fill="white"/>
<path d="M1016.41 2020.71H883.336L875.882 2013.46C868.227 2005.79 857.839 2001.47 847 2001.46H514.391C503.552 2001.47 493.164 2005.79 485.509 2013.46L480.954 2017.97H468.842C459.431 2017.97 450.113 2016.11 441.423 2012.5C432.733 2008.88 424.843 2003.59 418.206 1996.92C411.568 1990.25 406.314 1982.33 402.746 1973.62C399.178 1964.91 397.365 1955.59 397.413 1946.18V1836.7H1152.18L1092.14 1967.24C1086.6 1982.9 1076.34 1996.44 1062.78 2006.02C1049.21 2015.6 1033.01 2020.73 1016.41 2020.71Z" fill="#DA2828"/>
<path opacity="0.2" d="M1016.41 2020.71H883.336L875.882 2013.46C868.227 2005.79 857.839 2001.47 847 2001.46H514.391C503.552 2001.47 493.164 2005.79 485.509 2013.46L480.954 2017.97H468.842C459.431 2017.97 450.113 2016.11 441.423 2012.5C432.733 2008.88 424.843 2003.59 418.206 1996.92C411.568 1990.25 406.314 1982.33 402.746 1973.62C399.178 1964.91 397.365 1955.59 397.413 1946.18V1836.7H1152.18L1092.14 1967.24C1086.6 1982.9 1076.34 1996.44 1062.78 2006.02C1049.21 2015.6 1033.01 2020.73 1016.41 2020.71Z" fill="black"/>
<path d="M1802.08 1369.98C1801.62 1369.99 1801.17 1369.87 1800.78 1369.62C1800.49 1369.46 1800.23 1369.23 1800.02 1368.96C1799.81 1368.69 1799.66 1368.39 1799.57 1368.06C1799.48 1367.73 1799.46 1367.39 1799.51 1367.05C1799.56 1366.72 1799.67 1366.39 1799.85 1366.1L1836.08 1303.99C1836.23 1303.66 1836.45 1303.36 1836.72 1303.12C1836.99 1302.88 1837.31 1302.7 1837.65 1302.59C1838 1302.48 1838.36 1302.44 1838.72 1302.48C1839.08 1302.52 1839.43 1302.64 1839.74 1302.82C1840.05 1303 1840.33 1303.25 1840.54 1303.54C1840.75 1303.83 1840.9 1304.17 1840.97 1304.52C1841.05 1304.88 1841.05 1305.24 1840.97 1305.6C1840.9 1305.95 1840.75 1306.29 1840.53 1306.58L1804.3 1368.69C1804.08 1369.08 1803.75 1369.41 1803.36 1369.63C1802.97 1369.86 1802.53 1369.98 1802.08 1369.98Z" fill="#263238"/>
<path d="M1993.17 1678.99V1608.39C1993.17 1571.28 1939.24 1396.17 1865.07 1363.36C1790.89 1330.54 1611.44 1315.95 1498.4 1321.95C1385.35 1327.95 1234.42 1564.39 1234.42 1564.39L1250.83 1767.71C1273.81 1767.71 1347 1760.77 1357.72 1961.91C1358.43 1976.09 1364.58 1989.45 1374.88 1999.22C1385.18 2008.99 1398.85 2014.43 1413.05 2014.4H1808.8C1822.1 2014.39 1834.94 2009.57 1844.97 2000.84C1854.99 1992.11 1861.52 1980.05 1863.36 1966.88C1873.71 1895.19 1900.73 1767.55 1965.9 1767.55C2011.6 1767.55 2044.36 1806.68 2044.36 1851.56C2044.38 1802.26 2032.4 1753.69 2009.48 1710.05L1993.17 1678.99Z" fill="#DA2828"/>
<path d="M1084.32 1321.95C878.471 1321.95 645.241 1564.39 645.241 1564.39H1234.63C1234.63 1564.39 1385.41 1328.01 1498.61 1321.95H1084.32Z" fill="#DA2828"/>
<path opacity="0.4" d="M1096.95 1321.95C923.554 1321.95 741.669 1494 688.615 1548.19C687.297 1549.53 686.405 1551.24 686.052 1553.08C685.699 1554.93 685.901 1556.84 686.631 1558.57C687.362 1560.3 688.589 1561.78 690.158 1562.82C691.727 1563.85 693.568 1564.4 695.448 1564.39H1170.92C1190.05 1564.45 1208.93 1559.99 1226.02 1551.37C1243.11 1542.75 1257.92 1530.23 1269.26 1514.81C1320.4 1445.14 1418.9 1326.25 1498.61 1321.95H1096.95Z" fill="white"/>
<path d="M1234.63 1564.39L1016.93 1736.19L431.056 1734.32C431.056 1734.32 397.412 1783.24 397.412 1836.7H1152.18C1164.55 1803.94 1207.92 1767.71 1251.04 1767.71C1251.04 1706.73 1234.63 1564.39 1234.63 1564.39Z" fill="#DA2828"/>
<path opacity="0.2" d="M1092.14 1685.57C1091.52 1685.56 1090.92 1685.33 1090.46 1684.92C1089.99 1684.51 1089.69 1683.95 1089.6 1683.34C1089.51 1682.67 1089.69 1681.99 1090.1 1681.45C1090.5 1680.9 1091.1 1680.54 1091.77 1680.44C1144.03 1671.97 1192.93 1649.22 1233.08 1614.71C1241.02 1608.03 1246.18 1598.64 1247.57 1588.36C1248.96 1578.08 1246.47 1567.66 1240.58 1559.12C1240.37 1558.84 1240.21 1558.52 1240.12 1558.18C1240.04 1557.84 1240.02 1557.49 1240.07 1557.14C1240.12 1556.79 1240.25 1556.46 1240.43 1556.16C1240.62 1555.86 1240.86 1555.61 1241.15 1555.4C1241.44 1555.2 1241.77 1555.06 1242.11 1554.99C1242.46 1554.92 1242.81 1554.92 1243.15 1555C1243.5 1555.07 1243.82 1555.21 1244.11 1555.41C1244.4 1555.61 1244.64 1555.87 1244.83 1556.16C1251.43 1565.77 1254.22 1577.48 1252.66 1589.03C1251.1 1600.58 1245.3 1611.13 1236.39 1618.64C1195.55 1653.79 1145.76 1676.94 1092.55 1685.51L1092.14 1685.57Z" fill="black"/>
<path d="M431.056 1734.32C431.056 1734.32 533.955 1614.39 645.239 1564.39H1234.63L1016.93 1736.19L431.056 1734.32Z" fill="#DA2828"/>
<path d="M886.804 1734.32H500.312V1745.55H886.804V1734.32Z" fill="#263238"/>
<path d="M878.78 1711.86L899.484 1691.15C904.139 1686.51 910.032 1683.29 916.461 1681.89L1072.83 1647.83C1078.32 1646.63 1084.03 1646.81 1089.44 1648.35L1097.83 1650.68C1103.41 1652.25 1108.5 1655.21 1112.64 1659.28C1116.77 1663.35 1119.8 1668.4 1121.45 1673.96C1123.11 1679.52 1123.32 1685.41 1122.09 1691.08C1120.86 1696.74 1118.21 1702 1114.39 1706.37L1080.75 1744.83C1074.95 1751.45 1066.84 1755.59 1058.08 1756.42L906.264 1770.19C901.25 1770.67 896.192 1770.04 891.45 1768.34C886.709 1766.64 882.4 1763.91 878.832 1760.36C872.412 1753.92 868.802 1745.21 868.792 1736.12C868.782 1727.03 872.374 1718.31 878.78 1711.86Z" fill="white"/>
<path d="M511.234 1722.83L494.101 1690.79C491.689 1686.31 488.113 1682.55 483.749 1679.92C479.604 1677.44 474.889 1676.06 470.057 1675.92C465.225 1675.79 460.44 1676.9 456.161 1679.15L443.169 1685.98C436.789 1689.35 431.938 1695.04 429.608 1701.87L421.689 1725.32C420.372 1729.18 419.908 1733.28 420.329 1737.33C420.75 1741.39 422.045 1745.31 424.126 1748.82C426.208 1752.33 429.025 1755.34 432.384 1757.65C435.743 1759.97 439.564 1761.53 443.583 1762.22L479.35 1768.38C485.183 1769.39 491.187 1768.54 496.51 1765.95C501.833 1763.36 506.205 1759.15 509.008 1753.94L511.389 1749.54C513.58 1745.42 514.714 1740.83 514.687 1736.17C514.659 1731.5 513.473 1726.92 511.234 1722.83Z" fill="white"/>
<path opacity="0.4" d="M1355.02 1571.28H1899.95C1904.57 1571.28 1909.13 1570.2 1913.26 1568.13C1917.39 1566.06 1920.97 1563.04 1923.73 1559.34C1926.48 1555.63 1928.34 1551.33 1929.13 1546.78C1929.93 1542.23 1929.65 1537.55 1928.32 1533.13C1915.9 1491.72 1892.09 1426.97 1856.32 1393.95C1852.34 1390.31 1847.46 1387.81 1842.19 1386.7C1777.95 1373.09 1674.69 1364.03 1598.09 1358.75C1563.37 1356.38 1528.54 1361.55 1496.01 1373.91C1463.48 1386.28 1434.01 1405.55 1409.63 1430.39C1380.48 1459.83 1354.16 1491.94 1331.01 1526.3C1328.11 1530.65 1326.44 1535.71 1326.18 1540.94C1325.93 1546.16 1327.1 1551.36 1329.56 1555.97C1332.02 1560.59 1335.69 1564.45 1340.18 1567.14C1344.66 1569.84 1349.79 1571.27 1355.02 1571.28Z" fill="white"/>
<path d="M1002.69 1897.37C1002.69 1914.34 985.302 1928.16 963.874 1928.16C942.445 1928.16 925.054 1914.34 925.054 1897.37C925.054 1880.39 942.393 1866.62 963.874 1866.62C985.354 1866.62 1002.69 1880.39 1002.69 1897.37Z" fill="#263238"/>
<path d="M689.908 1710.82C702.641 1710.82 708.852 1723.87 703.78 1739.91C698.707 1755.96 684.318 1769.05 671.533 1769.05C658.748 1769.05 652.589 1756.01 657.661 1739.91C662.734 1723.82 677.175 1710.82 689.908 1710.82Z" fill="#263238"/>
<path d="M428.728 1897.37C428.728 1914.34 423.552 1928.16 417.807 1928.16C412.062 1928.16 406.834 1914.34 406.834 1897.37C406.834 1880.39 412.01 1866.62 417.807 1866.62C423.604 1866.62 428.728 1880.39 428.728 1897.37Z" fill="#263238"/>
<path d="M1338.25 1566.36V1548.92C1338.25 1543.91 1339.36 1538.97 1341.51 1534.45C1343.65 1529.93 1346.78 1525.94 1350.67 1522.78C1354.55 1519.62 1359.09 1517.37 1363.95 1516.19C1368.82 1515 1373.88 1514.92 1378.78 1515.95L1445.14 1529.77C1452.71 1531.35 1459.51 1535.49 1464.4 1541.49C1469.28 1547.5 1471.95 1555 1471.95 1562.74V1566.36C1471.95 1575.29 1468.41 1583.85 1462.1 1590.17C1455.79 1596.49 1447.23 1600.04 1438.31 1600.06H1371.95C1363.01 1600.06 1354.44 1596.51 1348.12 1590.19C1341.8 1583.87 1338.25 1575.3 1338.25 1566.36Z" fill="#263238"/>
<path d="M1687.38 1366C1687.38 1366 1678.53 1365.12 1663.1 1363.77C1731.32 1503.52 1713.93 1571.28 1713.93 1571.28H1766C1766.52 1486.18 1687.38 1366 1687.38 1366Z" fill="#263238"/>
<path opacity="0.2" d="M1112.01 1508.7C1110.96 1519.68 1105.85 1529.88 1097.69 1537.31C1089.53 1544.73 1078.89 1548.85 1067.86 1548.87H799.588C780.023 1548.87 772.932 1527.02 787.114 1510.77C812.705 1481.63 840.495 1454.5 870.241 1429.61C920.758 1387.06 983.491 1364.96 1042.14 1369.05L1064.29 1370.66C1073.85 1371.4 1082.92 1375.22 1090.13 1381.53C1097.35 1387.84 1102.34 1396.32 1104.35 1405.7C1112.18 1439.44 1114.76 1474.18 1112.01 1508.7Z" fill="#DA2828"/>
<path opacity="0.2" d="M1720.14 1977.59C1719.45 1977.59 1718.8 1977.32 1718.31 1976.84C1717.82 1976.35 1717.55 1975.69 1717.55 1975.01C1717.55 1922.63 1744.26 1706.63 1751.25 1674.28C1758.03 1642.86 1758.03 1607.77 1751.25 1584.94C1751.06 1584.28 1751.13 1583.58 1751.46 1582.97C1751.79 1582.37 1752.35 1581.93 1753.01 1581.73C1753.67 1581.56 1754.37 1581.64 1754.97 1581.97C1755.57 1582.3 1756.01 1582.84 1756.22 1583.49C1763.2 1607.1 1763.2 1643.17 1756.22 1675.37C1749.23 1707.56 1722.62 1922.83 1722.62 1975.01C1722.63 1975.68 1722.37 1976.32 1721.9 1976.8C1721.44 1977.28 1720.81 1977.57 1720.14 1977.59Z" fill="black"/>
<path opacity="0.2" d="M1713.26 1677.02H1650.16C1648.96 1677.06 1647.77 1676.83 1646.68 1676.33C1645.59 1675.84 1644.63 1675.1 1643.87 1674.17C1643.11 1673.25 1642.57 1672.16 1642.3 1670.99C1642.02 1669.83 1642.02 1668.61 1642.29 1667.45L1643.59 1660.15C1644.11 1657.52 1645.5 1655.15 1647.54 1653.41C1649.58 1651.67 1652.14 1650.67 1654.82 1650.57H1717.91C1719.11 1650.54 1720.3 1650.77 1721.39 1651.27C1722.48 1651.76 1723.45 1652.5 1724.21 1653.42C1724.97 1654.35 1725.5 1655.44 1725.78 1656.6C1726.05 1657.77 1726.05 1658.98 1725.78 1660.15L1724.49 1667.45C1723.97 1670.08 1722.57 1672.45 1720.53 1674.19C1718.5 1675.92 1715.93 1676.92 1713.26 1677.02Z" fill="black"/>
<path d="M1542.29 2146.59L1573.56 2146.07L1582.56 2073.61L1551.35 2074.13L1542.29 2146.59Z" fill="#DD9C61"/>
<path d="M1691.52 2144.26L1721.85 2135L1703.01 2066.31L1672.68 2075.63L1691.52 2144.26Z" fill="#DD9C61"/>
<path d="M1720.92 2125.89L1687.06 2143.33C1686.51 2143.62 1686.08 2144.1 1685.84 2144.67C1685.59 2145.25 1685.55 2145.89 1685.72 2146.49L1692.97 2173.97C1693.14 2174.64 1693.47 2175.26 1693.91 2175.78C1694.36 2176.3 1694.93 2176.72 1695.56 2176.99C1696.19 2177.27 1696.88 2177.39 1697.57 2177.36C1698.26 2177.33 1698.93 2177.15 1699.54 2176.82C1710.36 2171.02 1717.97 2166.47 1731.68 2159.17C1740.12 2154.82 1766 2142.6 1777.64 2136.55C1789.29 2130.49 1784.89 2118.23 1779.61 2119.68C1755.8 2126.04 1736.34 2127.9 1726.3 2125.27C1724.49 2124.79 1722.57 2125.01 1720.92 2125.89Z" fill="#444444"/>
<path d="M1574.18 2142.45L1540.07 2143.02C1539.45 2143.03 1538.86 2143.25 1538.39 2143.65C1537.92 2144.04 1537.6 2144.59 1537.48 2145.19L1531.73 2173.04C1531.58 2173.71 1531.59 2174.41 1531.75 2175.08C1531.91 2175.75 1532.22 2176.37 1532.66 2176.9C1533.1 2177.43 1533.66 2177.85 1534.29 2178.14C1534.91 2178.42 1535.6 2178.55 1536.29 2178.53C1548.61 2178.11 1566.36 2177.13 1581.84 2176.87C1599.9 2176.61 1605.18 2177.34 1626.4 2176.87C1639.19 2176.87 1642.55 2163.62 1637.17 2162.53C1612.63 2157.36 1603.06 2157.36 1581.78 2144.62C1579.48 2143.25 1576.86 2142.5 1574.18 2142.45Z" fill="#444444"/>
<path d="M1621.64 1195.92C1628.73 1210.15 1636.75 1225.21 1644.78 1239.55C1652.8 1253.89 1661.29 1268.17 1670.35 1281.58C1672.68 1284.89 1674.85 1288.36 1677.23 1291.52L1683.08 1299.49C1684.27 1301.04 1684.94 1301.76 1685.15 1302.13C1685.36 1302.49 1685.46 1303.01 1686.96 1303.11C1692.46 1302.12 1697.57 1299.61 1701.71 1295.86C1704.56 1293.69 1707.46 1291.21 1710.3 1288.57C1713.15 1285.93 1716 1282.87 1718.48 1280.44L1739.14 1291.93C1737.41 1296.5 1735.37 1300.95 1733.03 1305.23C1730.72 1309.62 1728.05 1313.81 1725.06 1317.76C1721.87 1322.07 1718.23 1326.03 1714.19 1329.56C1709.39 1333.83 1703.82 1337.15 1697.78 1339.34C1690.21 1342.1 1682 1342.55 1674.18 1340.64C1666.84 1338.84 1660.06 1335.29 1654.4 1330.28C1653.15 1329.23 1651.96 1328.11 1650.83 1326.92L1649.18 1325.21L1647.99 1323.87L1643.43 1318.69C1640.38 1315.22 1637.58 1311.65 1634.68 1308.34C1623.63 1294.12 1613.43 1279.26 1604.15 1263.82C1599.59 1256.16 1595.09 1248.3 1590.95 1240.58C1586.81 1232.87 1582.77 1225.06 1578.94 1216.31L1621.64 1195.92Z" fill="#DD9C61"/>
<path d="M1565.64 1196.12C1557.2 1224.8 1616.46 1302.9 1616.46 1302.9L1676.25 1264.44C1665 1239.6 1651.12 1216.04 1634.84 1194.15C1610.36 1162.94 1574.85 1164.6 1565.64 1196.12Z" fill="#FEC32D"/>
<g opacity="0.2">
<path opacity="0.2" d="M1565.64 1196.12C1557.2 1224.8 1616.46 1302.9 1616.46 1302.9L1676.25 1264.44C1665 1239.6 1651.12 1216.04 1634.84 1194.15C1610.36 1162.94 1574.85 1164.6 1565.64 1196.12Z" fill="black"/>
</g>
<path opacity="0.2" d="M1602.08 1229.77C1614.34 1234.94 1632.46 1264.65 1641.88 1286.7L1616.52 1303.01C1602.32 1284.06 1589.57 1264.08 1578.37 1243.22C1586.39 1234.32 1595.55 1227.02 1602.08 1229.77Z" fill="black"/>
<path d="M1714.91 1286.03L1736.55 1251.04L1755.44 1281.22C1750.89 1289.27 1743.51 1295.34 1734.74 1298.24L1714.91 1286.03Z" fill="#B55B52"/>
<path d="M1766.72 1251.4V1262.22C1766.73 1265.6 1765.55 1268.87 1763.41 1271.48L1755.54 1281.22L1736.65 1251.04L1756.17 1243.95C1757.36 1243.53 1758.64 1243.4 1759.89 1243.57C1761.14 1243.74 1762.34 1244.21 1763.37 1244.94C1764.41 1245.67 1765.25 1246.64 1765.83 1247.77C1766.42 1248.89 1766.72 1250.14 1766.72 1251.4Z" fill="#DD9C61"/>
<path d="M1745.61 1296.12L1711.55 1295.6L1730.39 1225.06L1764.45 1225.57L1745.61 1296.12Z" fill="#3AAB67"/>
<path d="M1749.07 1296.12L1715.02 1295.6L1733.86 1225.06L1767.91 1225.57L1749.07 1296.12Z" fill="#444444"/>
<path opacity="0.2" d="M1582.56 2073.66L1577.9 2110.98L1546.64 2111.5L1551.3 2074.13L1582.56 2073.66Z" fill="black"/>
<path opacity="0.2" d="M1672.68 2075.63L1703.06 2066.31L1712.74 2101.71L1682.36 2111.03L1672.68 2075.63Z" fill="black"/>
<path d="M1433.75 1211.18C1459.27 1321.02 1453.73 1429.97 1456.53 1453.47L1623.14 1441.05C1639.13 1262.53 1601.25 1171.9 1601.25 1171.9C1601.25 1171.9 1590.53 1169.83 1575.99 1168.33C1571.43 1167.86 1566.46 1167.45 1561.34 1167.19C1558.49 1167.19 1555.65 1166.93 1552.7 1166.88C1529.01 1167.25 1505.37 1168.97 1481.89 1172.05C1477.44 1172.62 1472.93 1173.24 1468.53 1173.97L1456.73 1176.14H1456.27C1452.45 1176.9 1448.83 1178.42 1445.62 1180.61C1442.41 1182.8 1439.67 1185.61 1437.57 1188.88C1435.46 1192.15 1434.04 1195.81 1433.39 1199.64C1432.73 1203.48 1432.86 1207.4 1433.75 1211.18Z" fill="#FEC32D"/>
<g opacity="0.2">
<path opacity="0.2" d="M1433.75 1211.18C1459.27 1321.02 1453.73 1429.97 1456.53 1453.47L1623.14 1441.05C1639.13 1262.53 1601.25 1171.9 1601.25 1171.9C1601.25 1171.9 1590.53 1169.83 1575.99 1168.33C1571.43 1167.86 1566.46 1167.45 1561.34 1167.19C1558.49 1167.19 1555.65 1166.93 1552.7 1166.88C1529.01 1167.25 1505.37 1168.97 1481.89 1172.05C1477.44 1172.62 1472.93 1173.24 1468.53 1173.97L1456.73 1176.14H1456.27C1452.45 1176.9 1448.83 1178.42 1445.62 1180.61C1442.41 1182.8 1439.67 1185.61 1437.57 1188.88C1435.46 1192.15 1434.04 1195.81 1433.39 1199.64C1432.73 1203.48 1432.86 1207.4 1433.75 1211.18Z" fill="black"/>
</g>
<path opacity="0.2" d="M1461.96 1234.37L1442.81 1258.96C1442.84 1259.27 1442.84 1259.58 1442.81 1259.89C1445.5 1276.56 1447.57 1292.86 1449.12 1308.6C1467.5 1285.98 1464.81 1245.14 1461.96 1234.37Z" fill="black"/>
<path d="M1489.91 1123.5C1493.9 1140.27 1493.64 1158.91 1481.63 1172.26C1494.93 1183.65 1512.17 1196.64 1539.29 1195.6C1566.41 1194.57 1560.36 1176.25 1552.44 1166.98C1529.3 1163.25 1529.25 1148.19 1529.04 1131.63C1529.03 1129.95 1528.49 1128.32 1527.49 1126.97C1526.5 1125.62 1525.1 1124.63 1523.5 1124.12L1498.04 1115.94C1496.96 1115.6 1495.81 1115.55 1494.71 1115.8C1493.61 1116.04 1492.59 1116.58 1491.76 1117.35C1490.94 1118.12 1490.33 1119.09 1490 1120.17C1489.68 1121.25 1489.65 1122.4 1489.91 1123.5Z" fill="#DD9C61"/>
<path opacity="0.2" d="M1529.09 1132.56L1503.47 1135.87C1504.04 1137.01 1504.77 1138.1 1505.44 1139.19C1510.31 1146.95 1520.97 1152.07 1532.05 1153.94C1529.65 1147.08 1528.64 1139.81 1529.09 1132.56Z" fill="black"/>
<path d="M1562.32 1066.26C1576.56 1068.64 1603.16 1052.49 1596.95 1030.96C1588.98 1040.95 1562.32 1037.58 1562.32 1037.58V1066.26Z" fill="#263238"/>
<path d="M1506.73 1089.03C1508.29 1103.42 1490.53 1129.04 1469.42 1121.54C1479.77 1114.19 1478.11 1087.32 1478.11 1087.32L1506.73 1089.03Z" fill="#263238"/>
<path d="M1485.87 1061.08C1482.04 1091.83 1478.21 1109.68 1490.69 1128.37C1509.37 1156.16 1549.54 1149.07 1562.48 1120.24C1574.12 1094.36 1578.42 1048.24 1550.88 1030.54C1544.85 1026.63 1537.92 1024.32 1530.75 1023.83C1523.58 1023.34 1516.4 1024.69 1509.89 1027.74C1503.39 1030.8 1497.76 1035.47 1493.56 1041.3C1489.36 1047.13 1486.71 1053.94 1485.87 1061.08Z" fill="#DD9C61"/>
<path d="M1481.63 1092.14C1489.13 1100.05 1509.79 1067.71 1506.01 1055.9C1513.77 1059.32 1528.68 1052.8 1527.75 1039.96C1550.99 1052.38 1584.68 1062.22 1585.2 1039.96C1585.72 1017.7 1564.5 1000.88 1543.79 999.123C1546.28 1005.8 1539.7 1008.65 1526.19 1005.8C1512.69 1002.95 1460.61 978.989 1466.36 1026.87C1446.9 1028.01 1444.36 1052.64 1481.63 1092.14Z" fill="#263238"/>
<path d="M1466.41 1080.18C1467.49 1087.9 1471.58 1094.88 1477.8 1099.59C1486.08 1105.75 1491.26 1099.23 1492.03 1089.5C1492.76 1080.7 1492.03 1066.93 1482.15 1064.6C1480 1064.13 1477.77 1064.21 1475.65 1064.82C1473.54 1065.43 1471.61 1066.57 1470.05 1068.12C1468.49 1069.66 1467.33 1071.58 1466.7 1073.69C1466.06 1075.79 1465.97 1078.02 1466.41 1080.18Z" fill="#DD9C61"/>
<path d="M1513.36 1449.28L1622.88 1441.15C1622.88 1441.15 1637.07 1665.95 1635.98 1761.24C1634.89 1860.41 1589.39 2103.53 1589.39 2103.53L1536.5 2104.35C1536.5 2104.35 1540.69 1868.54 1540.69 1771.18C1540.69 1640.07 1513.2 1449.28 1513.2 1449.28" fill="#444444"/>
<path opacity="0.2" d="M1555.7 1682.98C1557.15 1689.45 1597.88 1871.69 1611.03 1978.01C1618.02 1933.81 1625.21 1884.17 1630.08 1840.33L1555.7 1682.98Z" fill="black"/>
<path d="M1563.77 1445.61C1563.77 1445.61 1647.16 1649.85 1665.95 1739.45C1686.65 1837.53 1719.52 2085.62 1719.52 2085.62L1662.94 2094.42C1662.94 2094.42 1620.14 1908.96 1596.17 1814.24C1568.95 1706.27 1460.98 1535.31 1456.42 1453.58L1563.77 1445.61Z" fill="#444444"/>
<path d="M1726.61 2090.43L1656.32 2106.89L1647.47 2079.82L1724.23 2066.67L1726.61 2090.43Z" fill="#898989"/>
<path d="M1596.23 2104.72L1533.18 2105.7L1532.87 2085.36L1603.27 2083.18L1596.23 2104.72Z" fill="#898989"/>
<path d="M1528.73 1077.02C1528.27 1079.51 1529.2 1081.73 1530.8 1082.2C1532.41 1082.66 1534.11 1080.75 1534.58 1078.26C1535.05 1075.78 1534.11 1073.55 1532.46 1073.09C1530.8 1072.62 1529.2 1074.54 1528.73 1077.02Z" fill="#263238"/>
<path d="M1559.37 1083.54C1558.91 1085.98 1559.84 1088.25 1561.44 1088.72C1563.05 1089.19 1564.76 1087.27 1565.22 1084.79C1565.69 1082.3 1564.76 1080.02 1563.15 1079.61C1561.55 1079.2 1559.84 1081.06 1559.37 1083.54Z" fill="#263238"/>
<path d="M1549.28 1082.92C1550.82 1091.05 1553.47 1098.92 1557.15 1106.32C1555.23 1107.21 1553.13 1107.67 1551.02 1107.67C1548.9 1107.67 1546.8 1107.21 1544.88 1106.32L1549.28 1082.92Z" fill="#C78C57"/>
<path d="M1539.65 1113.93C1536.88 1113.35 1534.26 1112.21 1531.94 1110.59C1529.63 1108.96 1527.67 1106.87 1526.2 1104.46C1526.1 1104.28 1526.08 1104.07 1526.14 1103.87C1526.2 1103.68 1526.33 1103.52 1526.51 1103.42C1526.68 1103.34 1526.88 1103.33 1527.06 1103.39C1527.24 1103.45 1527.39 1103.57 1527.49 1103.73C1529.18 1106.37 1531.46 1108.59 1534.16 1110.19C1536.85 1111.79 1539.89 1112.73 1543.02 1112.94C1543.18 1112.99 1543.33 1113.09 1543.43 1113.22C1543.54 1113.36 1543.6 1113.52 1543.6 1113.69C1543.6 1113.87 1543.54 1114.03 1543.43 1114.17C1543.33 1114.3 1543.18 1114.4 1543.02 1114.44C1541.88 1114.37 1540.76 1114.2 1539.65 1113.93Z" fill="#263238"/>
<path d="M1525.68 1065.95C1525.44 1065.84 1525.21 1065.7 1525.01 1065.53C1524.75 1065.24 1524.6 1064.86 1524.6 1064.47C1524.6 1064.08 1524.75 1063.7 1525.01 1063.41C1526.72 1061.8 1528.79 1060.61 1531.05 1059.96C1533.3 1059.3 1535.69 1059.19 1538 1059.63C1538.37 1059.74 1538.69 1059.99 1538.88 1060.33C1539.07 1060.67 1539.13 1061.07 1539.03 1061.44C1538.93 1061.81 1538.7 1062.13 1538.37 1062.32C1538.04 1062.52 1537.64 1062.57 1537.27 1062.48C1535.42 1062.14 1533.52 1062.26 1531.72 1062.81C1529.91 1063.35 1528.27 1064.32 1526.92 1065.63C1526.75 1065.77 1526.55 1065.88 1526.33 1065.93C1526.12 1065.98 1525.9 1065.99 1525.68 1065.95Z" fill="#263238"/>
<path d="M1575.88 1075.83C1575.65 1075.75 1575.43 1075.62 1575.26 1075.44C1575.09 1075.26 1574.97 1075.04 1574.9 1074.8C1574.48 1072.99 1573.63 1071.31 1572.42 1069.91C1571.22 1068.5 1569.69 1067.41 1567.97 1066.72C1567.59 1066.6 1567.28 1066.34 1567.09 1065.99C1566.91 1065.64 1566.87 1065.24 1566.98 1064.86C1567.1 1064.48 1567.36 1064.17 1567.71 1063.98C1568.06 1063.8 1568.47 1063.76 1568.85 1063.87C1571.06 1064.75 1573.03 1066.15 1574.58 1067.95C1576.13 1069.75 1577.22 1071.91 1577.75 1074.23C1577.81 1074.41 1577.83 1074.61 1577.81 1074.81C1577.79 1075 1577.73 1075.19 1577.64 1075.36C1577.54 1075.54 1577.41 1075.68 1577.25 1075.8C1577.09 1075.92 1576.91 1076 1576.71 1076.04C1576.42 1076.08 1576.12 1076.01 1575.88 1075.83Z" fill="#263238"/>
<path d="M1732.61 2125.99C1730.14 2127.2 1727.53 2128.12 1724.85 2128.73C1724.74 2128.82 1724.6 2128.87 1724.46 2128.87C1724.32 2128.87 1724.18 2128.82 1724.07 2128.73C1723.99 2128.61 1723.94 2128.47 1723.94 2128.32C1723.94 2128.17 1723.99 2128.03 1724.07 2127.91C1724.75 2126.77 1730.85 2116.62 1734.74 2116.62C1735.18 2116.62 1735.61 2116.74 1735.98 2116.97C1736.35 2117.2 1736.66 2117.53 1736.86 2117.92C1737.26 2118.53 1737.51 2119.23 1737.59 2119.96C1737.66 2120.69 1737.55 2121.43 1737.27 2122.11C1736.18 2123.87 1734.54 2125.23 1732.61 2125.99ZM1726.25 2126.82C1730.04 2126.26 1733.48 2124.28 1735.88 2121.28C1736.06 2120.81 1736.12 2120.31 1736.06 2119.81C1735.99 2119.31 1735.81 2118.84 1735.51 2118.43C1735.2 2117.92 1734.94 2117.86 1734.68 2117.86C1732.67 2117.86 1728.78 2122.88 1726.25 2126.82Z" fill="#FEC32D"/>
<path d="M1725.01 2128.68H1724.59C1724.46 2128.66 1724.33 2128.61 1724.22 2128.53C1724.12 2128.44 1724.03 2128.34 1723.97 2128.22C1722.09 2124.16 1721.48 2119.63 1722.21 2115.22C1722.43 2114.69 1722.75 2114.21 1723.16 2113.81C1723.57 2113.41 1724.06 2113.1 1724.59 2112.89C1725.09 2112.65 1725.65 2112.58 1726.19 2112.7C1726.73 2112.82 1727.2 2113.13 1727.54 2113.57C1729.77 2116.36 1727.54 2125.32 1725.26 2128.37C1725.24 2128.44 1725.21 2128.5 1725.17 2128.55C1725.12 2128.61 1725.07 2128.65 1725.01 2128.68ZM1725.01 2114.55C1724.44 2114.84 1724 2115.31 1723.76 2115.9C1723.15 2119.39 1723.58 2123 1725.01 2126.25C1726.71 2122.57 1727.9 2116.16 1726.61 2114.55C1726.61 2114.55 1726.2 2114.03 1725.32 2114.55H1725.01Z" fill="#FEC32D"/>
<path d="M1577.33 2146.75C1577.2 2146.69 1577.08 2146.6 1577 2146.48C1576.92 2146.36 1576.88 2146.22 1576.88 2146.07C1576.88 2145.93 1576.92 2145.79 1577 2145.67C1577.08 2145.55 1577.2 2145.45 1577.33 2145.4C1578.73 2144.62 1591.21 2138.05 1595.04 2140.22C1595.39 2140.43 1595.68 2140.71 1595.9 2141.05C1596.12 2141.4 1596.25 2141.79 1596.28 2142.19C1596.36 2142.86 1596.28 2143.53 1596.04 2144.16C1595.81 2144.79 1595.43 2145.36 1594.93 2145.81C1591.57 2148.87 1582.61 2147.78 1577.54 2146.85L1577.33 2146.75ZM1594.21 2141.31C1589.23 2141.6 1584.4 2143.09 1580.13 2145.66C1584.76 2146.98 1589.72 2146.61 1594.1 2144.62C1594.43 2144.32 1594.68 2143.94 1594.83 2143.51C1594.97 2143.09 1595.01 2142.63 1594.93 2142.19C1594.94 2142.03 1594.9 2141.87 1594.81 2141.73C1594.73 2141.6 1594.61 2141.49 1594.47 2141.41L1594.21 2141.31Z" fill="#FEC32D"/>
<path d="M1577.33 2146.75C1577.23 2146.67 1577.15 2146.56 1577.1 2146.45C1577.04 2146.33 1577.02 2146.2 1577.02 2146.07C1577.3 2141.65 1578.92 2137.43 1581.68 2133.96C1582.82 2133 1584.28 2132.51 1585.77 2132.62C1587.84 2132.62 1588.41 2133.86 1588.57 2134.69C1589.19 2138.21 1581.84 2145.04 1578.21 2146.8C1578.08 2146.89 1577.92 2146.93 1577.76 2146.92C1577.61 2146.91 1577.45 2146.85 1577.33 2146.75ZM1586.18 2134.17C1585.95 2134.1 1585.7 2134.1 1585.46 2134.17C1584.92 2134.11 1584.37 2134.16 1583.85 2134.33C1583.33 2134.5 1582.86 2134.78 1582.46 2135.15C1580.16 2137.89 1578.77 2141.27 1578.47 2144.83C1582.3 2142.5 1587.27 2137.07 1586.91 2135C1586.91 2134.69 1586.81 2134.38 1586.18 2134.17Z" fill="#FEC32D"/>
<path d="M1483.49 1220.91C1473.14 1239.29 1462.79 1258.91 1453.47 1278.21C1444.09 1297.09 1436.05 1316.6 1429.4 1336.6C1428.63 1339.03 1428.06 1341.41 1427.33 1343.79C1427.08 1344.88 1426.61 1346.43 1426.45 1347.16C1426.29 1347.75 1426.15 1348.36 1426.04 1348.97C1425.59 1352.22 1425.68 1355.53 1426.3 1358.75C1428.38 1367.61 1431.78 1376.11 1436.39 1383.96C1447.13 1402.05 1459.65 1419.02 1473.76 1434.63L1458.75 1452.64C1438.73 1439.41 1420.95 1423.07 1406.06 1404.25C1397.77 1393.76 1391.34 1381.93 1387.06 1369.26C1384.6 1361.7 1383.5 1353.76 1383.8 1345.81C1383.8 1343.69 1384.22 1341.46 1384.48 1339.34C1384.74 1337.22 1385.05 1336.13 1385.36 1334.48C1385.98 1331.47 1386.55 1328.32 1387.22 1325.37C1393.02 1302.38 1400.88 1279.96 1410.72 1258.39C1420.16 1237.19 1430.87 1216.59 1442.81 1196.69L1483.49 1220.91Z" fill="#DD9C61"/>
<path d="M1450.99 1178.52C1422.16 1186.44 1394.05 1267.45 1394.05 1267.45L1463.46 1286.7C1475.62 1269.65 1485.33 1250.97 1492.29 1231.22C1506.89 1191.83 1485.87 1169 1450.99 1178.52Z" fill="#FEC32D"/>
<g opacity="0.2">
<path opacity="0.2" d="M1450.99 1178.52C1422.16 1186.44 1394.05 1267.45 1394.05 1267.45L1463.46 1286.7C1475.62 1269.65 1485.33 1250.97 1492.29 1231.22C1506.89 1191.83 1485.87 1169 1450.99 1178.52Z" fill="black"/>
</g>
<path d="M1460.46 1429.3L1492.14 1437.63L1479.56 1467.4C1479.56 1467.4 1451.14 1461.39 1451.3 1445.92L1460.46 1429.3Z" fill="#DD9C61"/>
<path d="M1504.3 1457.82L1494.93 1481.37L1479.56 1467.4L1492.14 1437.63L1504.3 1457.82Z" fill="#DD9C61"/>
<g clip-path="url(#clip0_152_195)">
<path d="M1796.82 825C1775.14 825 1755.96 835.674 1744 852.015C1732.17 835.674 1712.99 825 1691.18 825C1655.17 825 1626 854.255 1626 890.494C1626 945.445 1744 1034.13 1744 1034.13C1744 1034.13 1862 945.445 1862 890.494C1862 854.255 1832.83 825 1796.82 825Z" fill="#FEC32D"/>
</g>
<defs>
<clipPath id="clip0_152_195">
<rect width="236" height="209" fill="white" transform="translate(1626 825)"/>
</clipPath>
</defs>
</svg>
