<svg width="210" height="16" viewBox="0 0 210 16" fill="none" xmlns="http://www.w3.org/2000/svg">
<path d="M3.22625 16H6.16375V8.84375H8.445L8.82 6H6.16375V4.03125C6.16375 3.59375 6.22625 3.25 6.41375 3.03125C6.60125 2.78125 7.0075 2.65625 7.57 2.65625H9.07V0.125C8.5075 0.0625 7.7575 0 6.8825 0C5.7575 0 4.8825 0.34375 4.22625 1C3.53875 1.65625 3.22625 2.5625 3.22625 3.75V6H0.82V8.84375H3.22625V16ZM67.44 4.40625C68.065 4.40625 68.6588 4.59375 69.2213 4.90625C69.7838 5.21875 70.2213 5.65625 70.5338 6.21875C70.8463 6.78125 71.0338 7.375 71.0338 8C71.0338 8.65625 70.8463 9.25 70.5338 9.8125C70.2213 10.375 69.7838 10.8125 69.2213 11.125C68.6588 11.4375 68.065 11.5938 67.44 11.5938C66.7838 11.5938 66.19 11.4375 65.6275 11.125C65.065 10.8125 64.6275 10.375 64.315 9.8125C64.0025 9.25 63.8463 8.65625 63.8463 8C63.8463 7.375 64.0025 6.78125 64.315 6.21875C64.6275 5.65625 65.065 5.21875 65.6275 4.90625C66.19 4.59375 66.7838 4.40625 67.44 4.40625ZM67.44 10.3438C68.065 10.3438 68.6275 10.125 69.0963 9.65625C69.5338 9.21875 69.7838 8.65625 69.7838 8C69.7838 7.375 69.5338 6.8125 69.0963 6.34375C68.6275 5.90625 68.065 5.65625 67.44 5.65625C66.7838 5.65625 66.2213 5.90625 65.7838 6.34375C65.315 6.8125 65.0963 7.375 65.0963 8C65.0963 8.65625 65.315 9.21875 65.7838 9.65625C66.2213 10.125 66.7838 10.3438 67.44 10.3438ZM72.0338 4.25C72.0338 4.03125 71.94 3.84375 71.7838 3.65625C71.5963 3.5 71.4088 3.40625 71.19 3.40625C70.94 3.40625 70.7525 3.5 70.5963 3.65625C70.4088 3.84375 70.3463 4.03125 70.3463 4.25C70.3463 4.5 70.4088 4.6875 70.5963 4.84375C70.7525 5.03125 70.94 5.09375 71.19 5.09375C71.4088 5.09375 71.5963 5.03125 71.7525 4.84375C71.9088 4.6875 72.0025 4.5 72.0338 4.25ZM74.4088 5.09375C74.4088 5.6875 74.44 6.65625 74.44 8C74.44 9.375 74.4088 10.3438 74.3775 10.9375C74.3463 11.5312 74.2525 12.0312 74.1275 12.4688C73.94 13 73.6275 13.4688 73.2525 13.8438C72.8775 14.2188 72.4088 14.5 71.9088 14.6875C71.4713 14.8438 70.94 14.9375 70.3463 14.9688C69.7525 15 68.7838 15 67.44 15C66.065 15 65.0963 15 64.5025 14.9688C63.9088 14.9375 63.4088 14.8438 62.9713 14.6562C62.44 14.5 61.9713 14.2188 61.5963 13.8438C61.2213 13.4688 60.94 13 60.7525 12.4688C60.5963 12.0312 60.5025 11.5312 60.4713 10.9375C60.44 10.3438 60.44 9.375 60.44 8C60.44 6.65625 60.44 5.6875 60.4713 5.09375C60.5025 4.5 60.5963 3.96875 60.7525 3.53125C60.94 3.03125 61.2213 2.5625 61.5963 2.1875C61.9713 1.8125 62.44 1.5 62.9713 1.3125C63.4088 1.1875 63.9088 1.09375 64.5025 1.0625C65.0963 1.03125 66.065 1 67.44 1C68.7838 1 69.7525 1.03125 70.3463 1.0625C70.94 1.09375 71.4713 1.1875 71.9088 1.3125C72.4088 1.5 72.8775 1.8125 73.2525 2.1875C73.6275 2.5625 73.94 3.03125 74.1275 3.53125C74.2525 3.96875 74.3463 4.5 74.4088 5.09375ZM72.9088 12.125C73.0338 11.7812 73.0963 11.2188 73.1588 10.4375C73.1588 10 73.19 9.34375 73.19 8.5V7.5C73.19 6.65625 73.1588 6 73.1588 5.5625C73.0963 4.78125 73.0338 4.21875 72.9088 3.875C72.6588 3.25 72.19 2.78125 71.565 2.53125C71.2213 2.40625 70.6588 2.34375 69.8775 2.28125C69.4088 2.28125 68.7525 2.25 67.94 2.25H66.94C66.0963 2.25 65.44 2.28125 65.0025 2.28125C64.2213 2.34375 63.6588 2.40625 63.315 2.53125C62.6588 2.78125 62.2213 3.25 61.9713 3.875C61.8463 4.21875 61.7525 4.78125 61.7213 5.5625C61.69 6.03125 61.69 6.6875 61.69 7.5V8.5C61.69 9.34375 61.69 10 61.7213 10.4375C61.7525 11.2188 61.8463 11.7812 61.9713 12.125C62.2213 12.7812 62.69 13.2188 63.315 13.4688C63.6588 13.5938 64.2213 13.6875 65.0025 13.7188C65.44 13.75 66.0963 13.75 66.94 13.75H67.94C68.7838 13.75 69.44 13.75 69.8775 13.7188C70.6588 13.6875 71.2213 13.5938 71.565 13.4688C72.19 13.2188 72.6588 12.75 72.9088 12.125ZM142.997 3.875C143.122 4.4375 143.247 5.3125 143.31 6.4375L143.341 8L143.31 9.5625C143.247 10.75 143.122 11.5938 142.997 12.1562C142.872 12.5312 142.685 12.8438 142.435 13.0938C142.154 13.375 141.841 13.5625 141.466 13.6562C140.904 13.8125 139.654 13.9062 137.654 13.9688L134.81 14L131.966 13.9688C129.966 13.9062 128.685 13.8125 128.154 13.6562C127.779 13.5625 127.435 13.375 127.185 13.0938C126.904 12.8438 126.716 12.5312 126.622 12.1562C126.466 11.5938 126.372 10.75 126.31 9.5625L126.279 8C126.279 7.5625 126.279 7.03125 126.31 6.4375C126.372 5.3125 126.466 4.4375 126.622 3.875C126.716 3.5 126.904 3.1875 127.185 2.90625C127.435 2.65625 127.779 2.46875 128.154 2.34375C128.685 2.21875 129.966 2.09375 131.966 2.03125L134.81 2L137.654 2.03125C139.654 2.09375 140.904 2.21875 141.466 2.34375C141.841 2.46875 142.154 2.65625 142.435 2.90625C142.685 3.1875 142.872 3.5 142.997 3.875ZM133.06 10.5625L137.529 8L133.06 5.46875V10.5625ZM198.305 15V5.65625H195.399V15H198.305ZM196.867 4.375C197.305 4.375 197.711 4.21875 198.055 3.875C198.367 3.5625 198.555 3.15625 198.555 2.6875C198.555 2.25 198.367 1.84375 198.055 1.5C197.711 1.1875 197.305 1 196.867 1C196.399 1 195.992 1.1875 195.68 1.5C195.336 1.84375 195.18 2.25 195.18 2.6875C195.18 3.15625 195.336 3.5625 195.68 3.875C195.992 4.21875 196.399 4.375 196.867 4.375ZM209.18 15V9.875C209.18 8.4375 208.961 7.375 208.555 6.6875C207.992 5.84375 207.055 5.40625 205.711 5.40625C205.024 5.40625 204.461 5.59375 203.961 5.90625C203.492 6.1875 203.149 6.53125 202.961 6.9375H202.93V5.65625H200.149V15H203.024V10.375C203.024 9.65625 203.117 9.09375 203.336 8.71875C203.586 8.21875 204.055 7.96875 204.742 7.96875C205.399 7.96875 205.836 8.25 206.086 8.8125C206.211 9.15625 206.274 9.6875 206.274 10.4375V15H209.18Z" fill="#C4C4C4"/>
</svg>
