<svg width="168" height="17" viewBox="0 0 168 17" fill="none" xmlns="http://www.w3.org/2000/svg">
<path d="M5.016 3.504H0.088V0.599999H13.508V3.504H8.58V16H5.016V3.504ZM28.4496 13.14V16H16.5256V0.599999H28.1636V3.46H20.0676V6.804H27.2176V9.576H20.0676V13.14H28.4496ZM37.4454 16.264C36.228 16.264 35.0474 16.1027 33.9034 15.78C32.774 15.4427 31.8647 15.01 31.1754 14.482L32.3854 11.798C33.0454 12.282 33.83 12.6707 34.7394 12.964C35.6487 13.2573 36.558 13.404 37.4674 13.404C38.4794 13.404 39.2274 13.2573 39.7114 12.964C40.1954 12.656 40.4374 12.2527 40.4374 11.754C40.4374 11.3873 40.2907 11.0867 39.9974 10.852C39.7187 10.6027 39.352 10.4047 38.8974 10.258C38.4574 10.1113 37.856 9.95 37.0934 9.774C35.92 9.49533 34.9594 9.21667 34.2114 8.938C33.4634 8.65933 32.818 8.212 32.2754 7.596C31.7474 6.98 31.4834 6.15867 31.4834 5.132C31.4834 4.23733 31.7254 3.43067 32.2094 2.712C32.6934 1.97867 33.4194 1.39933 34.3874 0.973999C35.37 0.548666 36.5654 0.336 37.9734 0.336C38.956 0.336 39.9167 0.453333 40.8554 0.687999C41.794 0.922666 42.6154 1.26 43.3194 1.7L42.2194 4.406C40.7967 3.59933 39.374 3.196 37.9514 3.196C36.954 3.196 36.2134 3.35733 35.7294 3.68C35.26 4.00267 35.0254 4.428 35.0254 4.956C35.0254 5.484 35.2967 5.88 35.8394 6.144C36.3967 6.39333 37.24 6.64267 38.3694 6.892C39.5427 7.17067 40.5034 7.44933 41.2514 7.728C41.9994 8.00667 42.6374 8.44667 43.1654 9.048C43.708 9.64933 43.9794 10.4633 43.9794 11.49C43.9794 12.37 43.73 13.1767 43.2314 13.91C42.7474 14.6287 42.014 15.2007 41.0314 15.626C40.0487 16.0513 38.8534 16.264 37.4454 16.264ZM50.4898 3.504H45.5618V0.599999H58.9818V3.504H54.0538V16H50.4898V3.504ZM73.9234 13.14V16H61.9994V0.599999H73.6374V3.46H65.5414V6.804H72.6914V9.576H65.5414V13.14H73.9234ZM88.7537 3.46V7.53H95.8817V10.39H88.7537V16H85.1897V0.599999H96.8277V3.46H88.7537ZM110.152 16L107.182 11.71H107.006H103.904V16H100.34V0.599999H107.006C108.37 0.599999 109.551 0.827332 110.548 1.282C111.56 1.73667 112.338 2.382 112.88 3.218C113.423 4.054 113.694 5.044 113.694 6.188C113.694 7.332 113.416 8.322 112.858 9.158C112.316 9.97933 111.538 10.61 110.526 11.05L113.98 16H110.152ZM110.086 6.188C110.086 5.32267 109.808 4.66267 109.25 4.208C108.693 3.73867 107.879 3.504 106.808 3.504H103.904V8.872H106.808C107.879 8.872 108.693 8.63733 109.25 8.168C109.808 7.69867 110.086 7.03867 110.086 6.188ZM125.076 16.264C123.478 16.264 122.033 15.9193 120.742 15.23C119.466 14.5407 118.462 13.5947 117.728 12.392C117.01 11.1747 116.65 9.81067 116.65 8.3C116.65 6.78933 117.01 5.43267 117.728 4.23C118.462 3.01267 119.466 2.05933 120.742 1.37C122.033 0.680666 123.478 0.336 125.076 0.336C126.675 0.336 128.112 0.680666 129.388 1.37C130.664 2.05933 131.669 3.01267 132.402 4.23C133.136 5.43267 133.502 6.78933 133.502 8.3C133.502 9.81067 133.136 11.1747 132.402 12.392C131.669 13.5947 130.664 14.5407 129.388 15.23C128.112 15.9193 126.675 16.264 125.076 16.264ZM125.076 13.228C125.986 13.228 126.807 13.0227 127.54 12.612C128.274 12.1867 128.846 11.6 129.256 10.852C129.682 10.104 129.894 9.25333 129.894 8.3C129.894 7.34667 129.682 6.496 129.256 5.748C128.846 5 128.274 4.42067 127.54 4.01C126.807 3.58467 125.986 3.372 125.076 3.372C124.167 3.372 123.346 3.58467 122.612 4.01C121.879 4.42067 121.3 5 120.874 5.748C120.464 6.496 120.258 7.34667 120.258 8.3C120.258 9.25333 120.464 10.104 120.874 10.852C121.3 11.6 121.879 12.1867 122.612 12.612C123.346 13.0227 124.167 13.228 125.076 13.228ZM151.405 0.599999V16H148.479L140.801 6.65V16H137.281V0.599999H140.229L147.885 9.95V0.599999H151.405ZM159.338 3.504H154.41V0.599999H167.83V3.504H162.902V16H159.338V3.504Z" fill="#2B2626"/>
</svg>
